<svg id="svg" version="1.1" width="400" height="249.29859719438878" viewBox="0 0 400 249.29859719438878" xmlns="http://www.w3.org/2000/svg" xmlns:xlink="http://www.w3.org/1999/xlink" ><g id="svgg"><path id="path0" d="M17.456 0.586 C 13.038 2.155,6.804 7.031,4.074 11.052 C 3.685 11.626,3.159 12.319,2.906 12.594 C 2.652 12.868,1.923 14.158,1.285 15.461 L 0.125 17.830 0.045 23.388 C -0.058 30.575,0.186 31.459,3.728 36.748 C 6.855 41.416,10.378 44.120,18.769 48.292 C 20.245 49.025,21.554 49.626,21.679 49.626 C 21.803 49.626,22.222 49.787,22.611 49.985 C 24.714 51.054,32.380 53.852,36.658 55.113 C 38.647 55.698,41.060 56.436,42.020 56.752 C 43.348 57.190,55.047 60.186,56.484 60.457 C 56.621 60.483,56.970 60.584,57.259 60.682 C 57.549 60.779,59.569 61.230,61.748 61.684 L 65.711 62.508 65.870 63.735 C 65.958 64.410,66.110 65.271,66.209 65.648 L 66.388 66.334 41.721 66.334 C 22.378 66.334,16.962 66.401,16.631 66.646 C 16.237 66.937,16.213 70.934,16.272 128.304 L 16.334 189.651 67.581 189.651 C 124.645 189.651,119.988 189.790,123.691 187.979 C 126.773 186.472,128.779 184.808,131.490 181.514 C 133.190 179.450,134.524 175.764,135.153 171.399 C 135.430 169.479,135.524 127.753,135.254 126.746 L 135.104 126.185 102.741 126.185 C 73.460 126.185,70.363 126.222,70.226 126.579 C 70.029 127.094,70.029 147.719,70.226 148.234 C 70.362 148.588,71.990 148.628,86.062 148.628 C 94.688 148.628,101.746 148.674,101.746 148.730 C 101.746 150.015,97.095 154.965,94.978 155.933 C 91.418 157.562,92.993 157.461,69.763 157.548 L 48.628 157.627 48.628 128.190 L 48.628 98.753 91.267 98.753 L 133.906 98.753 134.042 98.192 C 134.116 97.883,134.147 90.617,134.109 82.045 L 134.040 66.459 107.141 66.395 L 80.242 66.332 80.392 65.772 C 80.474 65.464,80.543 64.587,80.545 63.823 L 80.549 62.435 82.855 61.761 C 84.124 61.390,85.375 61.037,85.635 60.975 C 86.539 60.760,87.907 60.283,88.155 60.096 C 88.292 59.993,88.758 59.832,89.191 59.740 C 90.578 59.444,96.812 57.363,98.876 56.508 C 99.974 56.052,101.714 55.368,102.743 54.987 C 116.620 49.846,130.370 40.190,133.971 33.056 C 136.174 28.692,135.885 26.449,133.416 28.747 C 132.366 29.725,128.091 32.467,126.621 33.107 L 125.935 33.406 125.935 31.219 C 125.935 25.590,123.578 21.724,122.212 25.113 C 121.064 27.964,119.035 31.602,117.512 33.541 C 117.405 33.678,116.986 34.239,116.582 34.788 C 115.945 35.654,113.943 37.832,111.337 40.497 C 110.705 41.143,109.161 42.463,105.362 45.605 C 105.087 45.831,104.470 46.291,103.990 46.625 C 103.510 46.959,103.061 47.296,102.993 47.373 C 102.924 47.451,101.914 48.129,100.748 48.882 C 99.582 49.634,98.591 50.334,98.545 50.436 C 98.500 50.539,98.303 50.623,98.109 50.623 C 97.915 50.623,97.756 50.736,97.756 50.873 C 97.756 51.010,97.587 51.122,97.382 51.122 C 97.176 51.122,97.007 51.210,97.007 51.317 C 97.007 51.424,96.699 51.639,96.322 51.794 C 95.945 51.949,95.047 52.425,94.327 52.851 C 92.540 53.909,92.683 53.650,94.701 52.178 C 95.627 51.503,96.824 50.568,97.362 50.101 C 103.846 44.472,105.938 42.117,105.224 41.256 C 104.795 40.739,104.769 40.750,102.470 42.416 C 100.593 43.776,98.758 44.888,98.389 44.888 C 98.315 44.888,98.254 44.456,98.254 43.927 C 98.254 40.683,97.164 40.606,95.095 43.706 C 92.713 47.275,88.217 51.814,82.919 55.999 L 81.674 56.983 82.795 55.671 C 83.411 54.949,84.563 53.603,85.355 52.678 C 86.607 51.217,89.153 47.825,89.900 46.622 C 90.037 46.401,90.697 45.402,91.366 44.401 C 100.678 30.475,96.149 18.193,81.671 18.109 C 72.758 18.057,68.972 24.023,69.188 37.781 C 69.273 43.154,69.335 44.165,69.723 46.384 C 69.806 46.864,69.924 47.650,69.983 48.130 C 70.042 48.610,70.196 49.389,70.325 49.861 C 70.569 50.752,70.447 51.305,70.190 50.472 C 69.968 49.750,68.469 46.738,67.225 44.514 C 66.612 43.416,66.000 42.279,65.865 41.985 C 65.564 41.331,62.216 35.902,61.856 35.484 C 61.713 35.319,61.596 35.121,61.596 35.045 C 61.596 34.877,57.245 28.567,56.508 27.665 C 56.220 27.313,55.792 26.752,55.555 26.418 C 55.075 25.739,53.260 23.317,51.746 21.336 C 51.197 20.618,50.447 19.704,50.079 19.305 C 49.711 18.905,48.776 17.793,48.000 16.833 C 47.225 15.873,46.122 14.582,45.549 13.965 C 44.976 13.348,44.189 12.450,43.801 11.970 C 42.251 10.055,36.546 4.230,35.573 3.570 C 35.004 3.184,34.321 2.671,34.055 2.431 C 33.789 2.191,33.462 1.995,33.327 1.995 C 33.192 1.995,32.900 1.830,32.678 1.629 C 30.785 -0.083,21.193 -0.741,17.456 0.586 M27.805 16.092 C 29.008 16.608,30.846 17.607,31.891 18.311 C 34.181 19.856,38.431 22.949,38.778 23.324 C 38.915 23.473,39.981 24.391,41.147 25.364 C 45.138 28.695,54.124 38.055,56.660 41.521 C 56.760 41.658,57.329 42.388,57.923 43.142 C 59.954 45.719,63.240 50.247,65.073 52.993 C 66.080 54.501,66.972 55.792,67.055 55.861 C 68.495 57.052,68.288 58.907,66.776 58.362 C 66.327 58.200,65.693 58.015,65.365 57.950 C 65.038 57.886,64.141 57.572,63.370 57.253 C 62.600 56.933,61.521 56.538,60.973 56.373 C 60.056 56.099,57.294 55.019,55.486 54.228 C 53.481 53.351,52.360 52.869,50.877 52.246 C 48.494 51.244,41.757 47.838,37.905 45.689 C 36.054 44.655,34.314 43.688,34.040 43.538 C 33.766 43.389,33.485 43.203,33.416 43.126 C 33.348 43.048,32.338 42.412,31.172 41.712 C 15.276 32.168,11.808 27.211,15.973 19.987 C 18.817 15.054,22.538 13.829,27.805 16.092 M84.106 29.889 C 87.976 32.281,88.017 36.573,84.242 44.109 C 82.666 47.254,79.282 52.793,77.824 54.613 C 76.299 56.518,76.170 56.635,75.769 56.481 C 74.686 56.066,73.952 42.248,74.782 37.905 C 76.179 30.595,79.972 27.334,84.106 29.889 " stroke="none" fill="#ec6464" fill-rule="evenodd"></path><path id="path1" d="M249.029 56.421 C 248.831 56.730,248.259 58.329,247.757 59.975 C 247.255 61.621,246.467 64.146,246.005 65.586 C 245.544 67.026,244.598 70.224,243.903 72.693 C 243.209 75.162,242.306 78.248,241.896 79.551 C 241.487 80.854,240.643 83.828,240.020 86.160 C 238.891 90.392,238.176 92.737,237.916 93.068 C 237.841 93.165,236.264 93.005,234.413 92.713 C 227.787 91.668,227.852 91.618,227.827 97.756 C 227.801 103.981,229.392 106.691,232.924 106.435 C 234.217 106.341,234.411 106.382,234.281 106.717 C 234.198 106.931,233.465 109.784,232.653 113.055 C 231.840 116.327,231.018 119.469,230.827 120.038 C 230.635 120.607,229.839 123.822,229.057 127.182 C 228.275 130.542,227.420 134.024,227.156 134.920 C 226.892 135.816,226.069 139.272,225.326 142.600 L 223.977 148.653 222.609 150.324 C 219.075 154.643,214.608 158.364,210.848 160.121 C 208.798 161.079,206.781 161.727,206.555 161.501 C 206.415 161.361,208.630 150.754,209.633 146.758 C 209.978 145.387,210.978 141.234,211.857 137.531 C 214.197 127.673,219.077 109.091,220.862 103.242 C 221.218 102.076,222.270 98.541,223.200 95.387 C 226.175 85.292,230.559 71.571,233.785 62.263 C 235.648 56.885,235.765 56.110,234.707 56.110 C 233.651 56.110,233.408 56.410,227.332 65.212 C 220.454 75.176,218.090 78.353,217.334 78.643 C 216.415 78.996,214.439 74.954,212.090 67.919 C 210.372 62.770,209.747 61.596,208.726 61.596 C 207.814 61.596,207.778 61.667,206.501 65.960 C 205.930 67.880,205.022 70.854,204.484 72.569 C 202.764 78.051,198.260 94.986,195.764 105.362 C 194.938 108.791,193.986 112.662,193.648 113.965 C 193.309 115.268,192.409 119.196,191.646 122.693 C 190.884 126.191,190.039 129.950,189.768 131.047 C 189.498 132.145,188.660 136.114,187.907 139.869 L 186.537 146.695 184.750 150.218 C 176.536 166.409,168.115 176.335,166.568 171.649 C 165.825 169.398,166.676 159.981,168.299 152.494 C 170.465 142.501,177.425 118.575,180.563 110.336 C 181.201 108.660,181.106 107.980,180.231 107.980 C 179.348 107.980,179.287 108.043,168.948 119.701 C 162.867 126.557,162.324 127.085,161.921 126.534 C 161.386 125.802,160.927 123.980,159.980 118.828 C 158.342 109.915,157.735 108.181,156.205 108.030 C 155.189 107.929,155.083 108.107,154.007 111.721 C 153.496 113.435,152.751 115.792,152.351 116.958 C 151.951 118.123,151.013 121.266,150.266 123.940 C 149.519 126.615,148.627 129.757,148.283 130.923 C 147.241 134.453,144.214 146.976,143.279 151.626 C 142.503 155.489,142.012 158.330,141.125 164.090 C 139.913 171.957,140.693 179.646,143.175 184.311 C 146.778 191.083,155.802 193.284,163.840 189.352 C 166.342 188.129,172.269 182.649,174.185 179.789 C 174.594 179.178,175.380 178.062,175.931 177.308 C 176.482 176.554,177.455 175.039,178.094 173.941 C 178.733 172.843,179.569 171.447,179.952 170.838 C 180.335 170.230,181.186 168.659,181.842 167.347 C 183.131 164.770,183.234 164.784,182.657 167.456 C 182.081 170.130,180.925 177.398,179.781 185.536 C 179.212 189.582,178.598 193.903,178.416 195.137 C 176.569 207.675,176.016 225.664,177.297 231.546 C 179.196 240.266,183.991 246.503,190.467 248.679 C 193.452 249.682,204.905 249.760,207.562 248.796 C 218.269 244.910,223.429 230.476,221.682 209.303 C 221.537 207.547,221.307 205.436,221.171 204.613 C 221.035 203.791,220.757 202.051,220.554 200.748 C 218.853 189.827,215.282 177.485,211.809 170.517 C 210.727 168.348,210.643 168.576,213.121 166.960 C 215.592 165.350,218.247 163.160,220.146 161.168 C 221.818 159.414,221.791 159.349,221.156 163.610 C 218.940 178.487,221.995 187.550,230.204 190.454 C 240.739 194.180,251.435 186.815,262.100 168.493 L 263.965 165.289 264.128 166.248 C 264.219 166.775,264.480 168.385,264.709 169.825 C 267.554 187.714,282.616 195.875,299.597 188.729 C 306.220 185.942,315.910 176.589,320.931 168.137 C 321.523 167.140,322.079 166.281,322.166 166.227 C 322.253 166.173,322.329 168.840,322.333 172.154 C 322.350 183.854,325.962 189.445,334.539 191.047 C 339.739 192.019,350.256 189.616,350.856 187.319 C 351.437 185.094,352.249 181.800,353.386 177.057 C 355.430 168.536,358.643 156.377,359.581 153.616 C 359.837 152.862,360.581 150.505,361.234 148.379 C 365.989 132.900,372.521 119.904,376.822 117.363 C 377.571 116.921,377.562 116.950,376.096 119.796 C 370.452 130.750,367.899 144.499,370.468 150.112 C 373.604 156.969,385.766 158.320,392.943 152.609 C 397.640 148.872,399.967 145.153,399.950 141.415 C 399.935 138.063,399.442 137.669,397.977 139.838 C 395.344 143.735,391.388 147.631,390.063 147.631 C 389.549 147.631,389.027 145.894,389.027 144.184 C 389.027 141.502,390.142 137.218,393.255 127.930 C 397.786 114.415,397.280 107.840,391.482 104.920 C 385.988 102.154,379.010 103.032,373.602 107.169 C 364.092 114.445,356.852 130.689,348.677 163.092 L 346.758 170.698 346.681 168.953 C 346.603 167.164,347.158 162.077,347.752 159.131 C 349.738 149.300,354.039 132.214,355.858 126.933 C 356.118 126.178,356.965 123.597,357.739 121.197 C 359.173 116.754,360.488 113.426,362.000 110.418 C 363.113 108.203,363.086 107.938,361.658 107.028 C 355.434 103.062,342.238 104.348,337.351 109.397 C 335.734 111.068,331.321 122.972,329.048 131.796 C 328.553 133.716,327.775 136.746,327.319 138.529 C 326.863 140.312,326.072 144.015,325.561 146.758 L 324.631 151.746 322.977 154.489 C 316.060 165.963,307.668 173.356,299.915 174.808 C 290.904 176.495,287.752 167.506,291.287 150.198 L 291.552 148.901 292.721 149.723 C 300.276 155.039,314.130 148.744,319.831 137.406 C 328.408 120.351,319.863 105.465,301.122 104.817 C 288.101 104.366,279.529 110.553,273.249 124.938 C 269.644 133.193,267.832 139.039,266.102 147.996 C 265.529 150.964,265.171 152.221,264.696 152.939 C 264.345 153.469,263.464 154.932,262.737 156.190 C 256.164 167.576,248.424 175.158,246.452 172.142 C 245.136 170.128,246.661 158.561,250.226 143.516 C 253.315 130.484,260.409 103.598,260.885 103.122 C 260.964 103.043,262.195 102.696,263.619 102.353 C 271.993 100.332,277.352 97.292,278.338 94.002 C 278.810 92.425,278.610 92.369,274.641 92.974 C 271.596 93.439,269.420 93.694,264.633 94.147 C 263.448 94.259,263.320 94.226,263.443 93.832 C 263.519 93.590,264.075 91.652,264.679 89.526 C 266.833 81.943,271.701 66.299,273.592 60.885 C 274.946 57.006,275.024 56.282,274.098 56.151 C 272.922 55.985,272.193 56.867,258.426 75.118 C 255.959 78.389,253.661 81.118,253.025 81.533 C 251.666 82.419,251.429 79.735,251.988 69.816 C 252.669 57.735,252.400 55.860,249.985 55.860 C 249.639 55.860,249.237 56.096,249.029 56.421 M175.457 63.839 C 166.587 65.440,161.399 75.548,164.822 84.556 C 169.556 97.015,187.332 95.857,190.926 82.855 C 193.960 71.884,185.884 61.957,175.457 63.839 M307.444 115.399 C 308.571 117.543,307.159 127.716,304.973 133.204 C 301.419 142.123,297.296 145.903,293.584 143.646 L 292.799 143.168 293.920 138.853 C 297.040 126.842,301.419 117.675,305.112 115.421 C 306.065 114.840,307.144 114.829,307.444 115.399 M205.695 177.057 C 208.986 189.008,209.087 215.194,205.896 229.311 C 204.017 237.628,200.730 242.431,197.856 241.061 C 194.585 239.501,194.947 229.737,199.231 203.990 C 199.494 202.413,200.229 197.700,200.865 193.516 C 201.501 189.333,202.124 185.517,202.249 185.037 C 202.425 184.362,204.200 174.197,204.250 173.576 C 204.287 173.133,205.261 175.480,205.695 177.057 " stroke="none" fill="#34343c" fill-rule="evenodd"></path></g></svg>